<?xml version="1.0" encoding="UTF-8" standalone="no"?>
<!-- Created with Inkscape (http://www.inkscape.org/) -->

<svg
   version="1.1"
   id="svg1"
   width="559"
   height="522"
   viewBox="0 0 559 522"
   xmlns="http://www.w3.org/2000/svg"
   xmlns:svg="http://www.w3.org/2000/svg">
  <defs
     id="defs1" />
  <g
     id="g1"
     transform="matrix(1.2127885,0,0,1.1039861,-58.811971,-26.385949)"
     style="fill:#607c6c;fill-opacity:1">
    <g
       id="g8"
       transform="translate(38.35102,-7.8122449)"
       style="fill:#607c6c;fill-opacity:1">
      <path
         style="fill:#607c6c;fill-opacity:1"
         d="M 206.59694,499.92439 C 193.177,498.07956 174.55814,492.44117 158.66864,485.41017 122.94945,469.60464 89.819491,440.44864 68.973733,406.47423 57.326489,387.49156 46.215083,360.26225 43.993608,345.25862 42.520095,335.30665 40.79057,267.22824 41.170394,234.12988 c 0.296047,-25.7979 0.515702,-29.00606 2.157387,-31.5096 C 45.729354,198.95793 50.649821,197 57.452105,197 c 4.612012,0 6.023551,0.45319 8.610276,2.76443 2.985393,2.66745 3.125771,3.16737 4.001423,14.25 0.499119,6.31706 1.594074,34.21057 2.433233,61.98557 1.971596,65.25709 2.315373,68.2263 10.148398,87.65187 12.234369,30.34073 34.279205,58.08326 60.838965,76.56338 17.89821,12.45347 43.02619,23.23604 64.0156,27.4695 12.48961,2.51909 47.72407,2.49042 61.5,-0.05 38.17088,-7.03921 61.55759,-19.9977 91.33171,-50.60657 15.47047,-15.90421 21.52139,-24.32961 29.74367,-41.41563 14.10493,-29.31024 15.73823,-40.28945 16.85505,-113.30124 l 0.79831,-52.18871 2.38563,-4.79451 c 2.90186,-5.83201 7.3603,-8.66789 13.48175,-8.57535 4.85844,0.0734 10.7099,3.12629 12.62486,6.58667 2.04706,3.6991 2.52653,23.52969 1.66009,68.66062 -1.46497,76.30694 -2.75232,83.89976 -20.03241,118.15115 -22.31394,44.22912 -47.37134,69.1061 -91.9537,91.29163 -32.5522,16.19896 -43.25083,18.60632 -84.89496,19.10275 -15.125,0.1803 -30.60637,-0.0992 -34.40306,-0.62114 z m 13.64456,-90.99811 c -7.88504,-1.22002 -22.99981,-6.65878 -33.08072,-11.90344 -10.31472,-5.36631 -24.73294,-18.07715 -32.75731,-28.87824 -12.10189,-16.28958 -19.11859,-34.10394 -21.60073,-54.84104 -1.87578,-15.6713 -1.85245,-168.48512 0.028,-183.25746 1.57684,-12.38738 4.93074,-23.66968 10.17952,-34.243212 13.86252,-27.925703 35.19795,-45.819633 66.48976,-55.764671 8.70058,-2.765183 11.88416,-3.249198 24.5,-3.724853 17.89042,-0.674522 28.89859,1.024136 43.4131,6.699024 31.3525,12.258221 52.90288,34.932509 63.62638,66.944672 4.73445,14.13347 5.21057,26.212 4.63336,117.54294 -0.4967,78.59351 -1.13114,94.59625 -4.23869,106.91558 -3.86644,15.32778 -18.67566,38.90192 -30.59116,48.6967 -13.6671,11.23464 -31.174,20.52053 -45.19834,23.97379 -9.52096,2.34438 -35.37286,3.39217 -45.40315,1.84021 z M 253.37408,376.494 c 10.52874,-1.83606 16.65427,-4.09473 25.73409,-9.48895 12.81396,-7.61264 27.86186,-25.65897 31.55139,-37.83829 2.3447,-7.74 3.27845,-37.95135 3.5131,-113.66676 0.24003,-77.44956 -0.24441,-88.15411 -4.54969,-100.53395 -2.91093,-8.37037 -11.671,-20.910763 -20.14379,-28.836647 -18.13604,-16.965373 -49.15429,-22.687265 -75.7319,-13.970154 -17.92378,5.878764 -34.37066,21.253931 -44.74544,41.829711 -2.96519,5.8807 -3.3935,7.89603 -4.56937,21.5 -5.16435,59.74775 -4.02925,157.52194 2.17099,187.00171 2.62078,12.4608 7.36784,20.84294 18.78424,33.1683 17.36129,18.74358 40.07077,25.7031 67.98638,20.83503 z"
         id="path8" />
    </g>
  </g>
</svg>
