<?xml version="1.0" encoding="UTF-8" standalone="no"?>
<!-- Created with Inkscape (http://www.inkscape.org/) -->

<svg
   version="1.1"
   id="svg1"
   width="199"
   height="218"
   viewBox="0 0 199 218"
   xmlns="http://www.w3.org/2000/svg"
   xmlns:svg="http://www.w3.org/2000/svg">
  <defs
     id="defs1" />
  <g
     id="g1">
    <g
       id="g2"
       transform="translate(0.41945382,-3.3556305)"
       style="fill:#d1d5db;fill-opacity:1">
      <path
         style="fill:#d1d5db;fill-opacity:1"
         d="M 81.508719,204.40212 C 54.263931,198.31966 31.248264,177.37374 22.280334,150.5 c -2.575185,-7.71692 -2.683481,-8.94975 -3.060572,-34.84095 -0.215007,-14.76253 -0.130124,-27.880061 0.18863,-29.150077 1.045028,-4.163724 8.815737,-5.082615 11.239281,-1.329051 0.46878,0.726043 1.097111,13.470078 1.396291,28.320078 0.497634,24.7004 0.737612,27.55361 2.817628,33.5 5.841876,16.70089 18.065691,30.84739 33.20244,38.42487 11.981859,5.99814 21.430918,8.00278 34.344028,7.28618 17.94844,-0.99603 30.56135,-6.69216 43.63588,-19.70647 C 152.90722,166.17291 155.40372,162.82799 158.73538,156 164.85773,143.4527 166,136.16521 166,109.65294 c 0,-20.158469 0.18345,-22.657917 1.81043,-24.667156 2.22289,-2.745153 6.49888,-2.920822 9.30399,-0.382231 1.98932,1.800301 2.03576,2.629853 1.61651,28.874997 -0.48218,30.18546 -0.95077,33.02552 -7.7583,47.02145 -5.1156,10.51741 -12.52999,20.15073 -20.78321,27.00307 -7.48263,6.21253 -21.60043,13.6009 -30.68942,16.06091 -8.68697,2.3512 -29.188037,2.80348 -37.991281,0.83814 z M 85.5,167.12291 C 77.338713,164.1768 73.917018,162.04745 68.270371,156.40081 61.759668,149.8901 57.422553,141.0546 56.047225,131.5 54.816225,122.94806 54.730362,65.098605 55.934805,55.757816 59.245646,30.081324 84.458268,13.019473 109.46504,19.532909 125.37523,23.676986 137.52937,36.208863 140.95352,52 c 0.84413,3.892868 1.09822,17.042132 0.86955,45 0,0 0.22945,32.84894 -1.58361,40.61224 -1.01049,4.32679 -6.2523,21.30472 -27.52697,29.23141 -7.44814,2.77508 -19.943403,2.90331 -27.21249,0.27926 z m 27,-14.36989 c 5.91912,-3.04768 10.39985,-7.5648 13.6422,-13.75302 2.34278,-4.47133 2.35968,-4.74755 2.65219,-43.358303 0.33147,-43.751836 0.21667,-44.652827 -6.82468,-53.560798 C 116.20294,34.785389 108.84266,31.484131 98.5,31.55419 83.105809,31.658463 74.556892,41.416337 69.821682,51.657187 c -2.008839,4.344523 -4.43986,74.191703 1.329678,86.498193 3.347424,7.1401 9.522287,13.17567 16.177535,15.81259 7.284655,2.8863 18.232005,2.35789 25.171105,-1.21495 z"
         id="path2" />
    </g>
  </g>
</svg>
